<svg xmlns="http://www.w3.org/2000/svg" version="1.0" viewBox="0 0 1253 693">
  <path d="M774.5 7.5C772.9 9 772 11.1 772 13c0 2.7-.3 3-3.4 3-4.2 0-5.2 1.2-6.1 7.1-1 7-1.9 7.8-5 4.5-3.2-3.4-5.1-2.9-12.1 3-2.8 2.4-6.9 5-9.2 5.8-6.4 2.3-27.7 5.4-51.7 7.6-12.1 1.1-27.8 2.9-35 4-12.5 1.8-19.6 2.7-39 5-14.9 1.8-35.4 5.8-59.3 11.6-12.5 3-26.7 6.1-31.7 6.9-8.5 1.3-9.9 1.2-23.5-1.1-8-1.3-18.8-3.3-24-4.4-16.6-3.6-64.4-19.1-69.1-22.3-5.1-3.6-8.7-.8-9.5 7.4-.5 4.6.9 22.4 3.2 40.6l.7 5.3h-4.9c-2.7 0-10.9.7-18.3 1.6-38.8 4.5-80.3 21.8-129.1 53.9-15.8 10.4-21.1 14.6-36.8 28.8-15.7 14.1-25.9 24.9-33.4 34.8-15.8 21-34.4 51.7-41.8 68.7-5 11.6-9 24.2-16.1 51.1-3.2 12.4-6.2 22.8-6.7 23.3-1.4 1.4-8.6-1.3-15.2-5.7-15.9-10.7-31.1-32.7-36.1-52.5-1.9-7.2-2.1-10.3-1.6-22.4.6-15.8 2.3-23.3 8.2-35.3 6.4-13 15.5-21 37-32.5 7.3-3.8 11.9-7.2 17-12.3 12.6-12.5 28.8-39.8 33.6-56.5 2.7-9.6 3.7-29.9 1.9-40.8-3.5-22.3-12.7-40.1-28-54.6-16.1-15.2-32.5-22.2-56.5-24.2C53.4 21 38.4 26 27.7 36.6c-12.1 12-13.7 22.1-4.9 30.7 8.6 8.4 20 10.6 44.5 8.4 20.5-1.8 24.2-1.2 29.9 4.5 5.2 5.2 12.3 20.2 13.7 28.7 2.5 15.4-3.8 35.3-15.1 47.6-5 5.5-32.4 28.3-46.7 38.9-24.7 18.2-37.8 42.9-43.5 81.7-2.1 14.1-2 23.3.4 37.1 2.6 15.4 5.1 22.7 13.6 39.3 8.7 17.2 13.7 25.3 22.6 37.2 8.2 10.9 14.6 16.7 24.8 22.1 6.9 3.7 26 10.8 35.5 13.1l4.1 1.1 2.7 20.2c3.9 29.9 6.5 38.5 20.2 66.3 12.2 25 25.3 38.9 46 49.1 13.4 6.5 21.5 8.8 32 8.8 11.6.1 20-2.5 27.7-8.6 3.6-2.8 3.7-2.9 5.6-1 8.3 8.3 33.1 21.1 54.8 28.3l13.1 4.4 3.9 7.4c11.2 21.5 27.9 42.2 43.8 54.5 19.2 14.9 44.7 26.7 64 29.7 18.4 2.9 47.3-2.2 64.8-11.4 12.8-6.6 23.9-22.2 28.4-39.7l1.9-7.2 6.5.7c3.6.3 13.7 1.7 22.5 3 21.8 3.3 28.7 4.2 45 6 7.7.8 26.2 2.8 41 4.5 39.2 4.3 50.8 5.1 111 7.5 44.9 1.9 63.8 1.9 103.5 0 45.3-2.1 76.2-4.7 145.5-12.1 45.5-4.8 50.1-5.6 73.4-12.8 6.3-2 11.5-3.4 11.6-3.3 1 2.9 9.4 13.2 13.8 16.8 12.5 10.5 30.2 16.8 49.5 17.6 25.2 1.2 43.2-4.4 63.4-19.5 12.7-9.5 18.9-16.6 24.3-27.8 10.7-22.1 15-41.2 14.2-62.9-.6-14.9-2.3-22.9-8.7-40.9-3.7-10.5-3.7-11.4 1.3-28.4 8.5-28.6 13.5-64 14.4-101.7.8-35-1.2-46.7-15.8-93.5-8.8-27.9-14.2-42-22.6-58-3.7-6.9-10.7-20.4-15.7-30-12.8-24.5-22.8-39.1-34.5-50.5-4.9-4.7-4.9-5.3-1.5-20 5-21.8 5.7-27.2 5-41-.3-7.2-1.2-17.3-2.1-22.5-.8-5.2-1.5-12.6-1.5-16.3 0-7.3-1.1-10.7-3.6-10.7-2.8 0-9.9 4.2-17.2 10.3-17.4 14.2-35.8 24.6-55.7 31.4-10.5 3.5-11.6 3.7-23.5 3.6-15.3 0-26-1.8-51.6-8.4-36.9-9.4-64-13.7-128.9-20.3-18.6-1.9-28.3-4.4-40.5-10.4-7-3.5-9.9-5.4-10.8-7.5-.8-1.6-2.1-3.1-3-3.4-1-.2-2.6-.9-3.8-1.5-1.1-.5-3.6-1-5.4-1.1-3.2-.2-3.5 0-4.8 4.5-1.7 6-3.7 7.1-12 6.6-5.7-.4-6.8-.8-8.8-3.4-2.4-2.9-6.6-14.6-7.8-21.3-.6-3.6-2.2-6.1-3.8-6.1-.5 0-2 1.1-3.3 2.5zm7.3 25.1c3.8 7.5 9.3 10.4 19.6 10.4 4.9 0 13.6-3.9 13.6-6 0-.6.5-1 1-1 .6 0 1 .8 1 1.9 0 2.4 2.5 4.5 4.5 3.7.8-.3 1.5-1.3 1.5-2.1 0-1.2 1.5-.5 5.7 2.4 3.1 2.3 6.6 4.1 7.9 4.1 1.2 0 4.3.9 6.9 2 8.3 3.6 19.7 6 36 7.6 30.1 2.9 79 9.5 94 12.5 8.3 1.6 23.6 5.2 34.1 7.9 39.2 10.1 57.8 11 78.2 3.9 19.8-6.9 37.5-17 56.2-32.1 4.7-3.7 9-6.8 9.7-6.8.9 0 1.3 2 1.3 6.7 0 3.8.7 11.3 1.5 16.8 3.1 21.2 2.2 30.7-5.6 64.7-2.7 11.6-2.3 13.1 5 18.3 4.8 3.5 13.1 13.5 20.3 24.6 3.5 5.3 22.5 41.2 32.8 61.9 11.1 22.3 28.6 78.1 32.5 103.6 1.8 11.8 2.1 44.8.5 60.4-5.5 54.7-14.3 89.8-28.1 112.5-3.1 4.9-7.7 13-10.4 18-3.8 7-10.7 18.3-13.1 21.3-.1.2-4.6-1-9.8-2.7-21.9-7-45.7-6.2-66.8 2.3-15.9 6.5-29.8 18.7-36.4 32.1l-3.9 7.9v25.7l-10 3c-5.5 1.7-11.3 3.4-13 3.9-6.1 1.9-17.6 4-30.1 5.4C898.8 641.5 820.1 646 748.9 643c-45.6-1.9-69.5-3.1-80.4-4.1-21.4-1.8-94.4-10-119.8-13.4-14.1-1.9-27.1-3.5-28.7-3.5-1.7 0-3-.5-3.1-1.3-.9-21-4.4-31.9-13.2-41.4-11.9-12.9-46-20.7-69.7-15.9-14.8 3-30.6 10.3-40.1 18.4-4.6 4-10.2 14.7-9.7 18.8.2 2.3.8 2.9 2.7 2.9 2.1 0 2.8-.9 4.8-6 3.3-8.4 8-12.7 20.8-19.1 15.8-7.8 24.6-9.8 41-9.1 35.2 1.4 51.6 12.8 55.6 38.8 1.7 11.4-1.6 28.4-7.9 40.4-3.7 7-4.4 7.5-3.8 2.7 1.6-10.9-4.4-27.9-12.5-36-7.8-7.8-12.4-3.3-4.8 4.8 2.3 2.5 5.6 7.4 7.3 11 2.6 5.7 3 7.6 3 15.5.1 6.2-.5 10.6-1.7 14.2-2 5.6-3.9 7.2-13.7 11.1-6.1 2.4-25 7.6-25.6 7-.2-.2.1-2.2.8-4.4 1.7-6.2.4-23.8-2.2-30.6-2.5-6.5-5.4-10.1-7.8-9.6-2.5.5-2.6 3.3-.3 8.1 5.2 10.8 6.4 26.1 2.6 34.1l-1.8 3.8-11.1-.5c-27.3-1.2-59.8-17.6-83.1-41.8-10.4-10.8-15.7-18.1-24.5-33.3-13.2-22.9-22.6-45.1-27.5-64.6-7.6-30.1-9-68.8-3.5-97.3 3.7-19.1 16.2-54.2 24.7-69.4 3.4-6.1 3.9-9.3 1.7-10-5.3-1.8-22.9 36.6-30.5 66.3-4.3 17.1-5.9 31.1-5.9 52.2 0 35.8 5.3 62.8 18.1 92.8 2.3 5.2 3.9 9.7 3.7 9.9-1 1-21.5-6.7-34-12.8-12.9-6.3-25.8-14.6-25.8-16.8 0-.5.9-2.7 2-4.9 3.8-7.5 7.2-21.1 6.6-26.9-1-10.7-8.5-21-19.3-26.4-6.4-3.2-10.2-4.1-11.9-2.6-2.7 2.2-1.3 3.9 6 7.4C238 507 245 516.1 245 525.6c0 7.4-6.8 24.5-11.8 29.7-6.8 7.2-20.9 11-32.9 8.8-8.1-1.4-20.9-6.4-28.8-11.2-8.8-5.3-20.8-17.1-27.3-26.7-6.4-9.6-16.6-31.4-21.2-45.1-8.2-24.3-12.8-82.8-8.5-106.1 3.2-17.2 16-64.6 21.2-78.5 7.3-19.5 25.4-50.5 43.8-75 10.6-14.1 31.3-34.6 50-49.7 7.9-6.3 32-22.2 44.2-29.1 12.5-7.1 36.7-19.1 46.6-23.1 11-4.4 33.8-11.1 44.3-13.1 7.5-1.3 24.9-3.2 30.6-3.3 3 0 3-.1 4.8 20.8.6 6.3 1.7 17.3 2.5 24.3.8 7.1 1.5 13.2 1.5 13.6 0 .4-1.3.6-2.9.3-3.9-.5-4.7 2-3.1 10.6 1.5 7.7 2.5 10.2 4.4 10.2 2.7 0 3.8-2.6 2.7-6.4l-.9-3.6 3.8.6c4.5.7 5.7-.6 4.1-4.4-1.1-3-3.4-22.2-5.1-43.2-.6-7.4-2.2-23-3.5-34.5-1.3-11.6-2.7-25.3-3-30.5l-.6-9.5 2.2 4c3.2 5.8 6 14.5 14.4 45.3 12.2 44.2 13.3 47.2 17.7 47.2 2.7 0 3.3-2.7 1.4-6.6-.9-1.9-5.9-19.1-11.2-38.2-5.3-19.1-10.7-37.8-12.1-41.5-1.3-3.8-2.3-7.1-2-7.3.2-.3 8 2.2 17.3 5.4 27.8 9.7 40.1 12.9 68.9 17.7 5.5 1 11 2.1 12.3 2.6 1.5.6 3.1.5 4.5-.2 1.1-.7 6.8-2 12.6-3s20.1-4 31.6-6.8c26.2-6.2 38.4-8.4 64.8-11.6 11.4-1.4 25.4-3.2 31-4.1 5.6-.8 21.5-2.6 35.2-4 33.9-3.3 37.9-3.9 46.2-6.7 7.3-2.4 8.2-2.9 14.6-8 3.6-2.8 3.6-2.8 6.1-1 1.5 1.1 2.6 3 2.8 4.8.2 2.4.8 3 2.8 3 2.2 0 2.8-.8 4.9-7.7 2.4-7.5 2.5-7.7 5.3-7.1 2.3.5 3 .1 4.5-2.5l1.8-3.1 1.1 3.2c.7 1.8 2.1 5.1 3.2 7.3zM80.5 30.5c29.9 5.2 53.6 25.7 63.5 54.8 4.2 12.5 5.3 20.6 4.8 35.7-.4 11.9-.8 14.6-3.7 22.9-5.6 16.5-18.9 38-30.5 49.6-4.7 4.7-9.6 8.4-14.6 10.9-18.4 9.5-29.7 18.3-36.5 28.6-15.5 23.3-18 58.8-6 84.7 6.6 14.4 19.2 30.5 30.5 39.1 4.7 3.6 13.5 8.1 17.3 8.7 2 .4 3.7 1 3.7 1.4 0 .3-.7 4.1-1.5 8.4-1 5.2-1.5 14-1.5 25.8 0 21.1 1.4 19.7-14.7 14.3-22.6-7.5-33.4-14.7-44.1-29.2-5.8-7.8-20.3-32-24.3-40.7-6.8-14.6-11.6-40.4-10.5-57 1.3-20.5 6.7-41.9 14.2-56.5 5.7-11.2 12.1-19 22-27 52.9-42.7 52.4-42.2 59.3-53 8.6-13.3 12.6-35.9 8.6-49.6-4.4-15.5-14.3-29.6-23-33-4.6-1.7-11.9-1.7-38 .2-10.5.8-19.1-1-25.4-5.1-8.1-5.4-7.7-12.7 1.2-21.9 11.8-12.1 27.4-15.9 49.2-12.1zm1147.3 482.6c6 16.4 7.9 39.5 4.7 56.6-2.5 13.1-8.7 30.3-13.8 38.6-8.4 13.3-27.1 29.3-40.6 34.4-5 1.9-6.4 1.4-9.9-3.7-4-6-6.6-16.5-6.7-27 0-9.1.2-10 3.8-17.2 4.3-8.8 4.4-9.4 1.7-10.8-2.6-1.4-5.3 1.3-8.6 8.4-3.9 8.6-4.9 15.7-3.6 25.1 1.6 11.1 3.5 16.9 7.5 23.6l3.4 5.7-5.5 1.1c-11.7 2.3-35.3.8-44.2-2.9-3-1.3-9.1-11.3-11.5-18.8-2.9-8.7-1.8-20 2.8-29.7 4-8.4 4.1-11.5.2-11.5-1.8 0-3 1.3-5.4 6-7.4 14.2-7.9 30.4-1.4 43.3l2.4 4.8-3.3-1.7c-1.8-.9-6.3-4.7-9.9-8.3-5.2-5.2-7.1-8.1-9.3-13.7-2.5-6.3-2.8-8.2-2.4-16 .3-7 .9-10.1 2.9-14.4 7.6-16 25-28.4 47.5-33.6 10.7-2.5 30-2.6 40.7-.1 16.9 4 34.4 15.8 40.3 27.2 2.9 5.7 6.4 7.9 8.6 5.7 3.1-3.1-8.3-19.6-18.5-26.6l-5.6-3.9 4.2-6.1c2.3-3.3 6.7-10.9 9.8-16.7 7.7-14.4 14.7-25.1 16.2-24.6.6.2 2.3 3.2 3.5 6.8z"/>
  <path d="M574 280.9c-7.4 2.4-12 6.7-12 11.1 0 4.1 3.9 9.9 8.2 12.1 3.3 1.7 5.5 2 10.9 1.7 8-.4 11.2-2.3 14.7-8.6l2.3-4.1-2.2-5.1c-1.2-2.8-2.9-5.5-3.8-6-2.4-1.2-15.2-2.1-18.1-1.1zm406.6 9.5c-3.8 3.7-3.6 10.4.3 14.8 2.8 3.2 3.2 3.3 10.4 3.3 8.3 0 10-.9 12.3-6.3 2-4.9 1.8-7.7-1-10.9-2.2-2.6-3.1-2.8-11-3.2-8-.3-8.6-.2-11 2.3zm132.4 87c-.8.8-9.8 5.8-20 11.1-10.2 5.2-20.9 10.8-23.7 12.3-2.9 1.5-5.5 3.3-5.8 4.1-.6 1.5 1.2 4.1 2.8 4.1 1.6 0 44.6-22.8 48.5-25.7 2.3-1.7 3.2-3.2 3-4.6-.4-2.7-2.8-3.3-4.8-1.3zm-618.5 3.3c-1 2.8 3.5 5.9 26.7 18.2 21.9 11.6 27.1 13.3 27.6 9.5.3-1.8-2.9-3.7-22.5-13.9-12.5-6.5-24-12.6-25.5-13.6-3.3-2.4-5.4-2.4-6.3-.2zm294.8 9.8c-6.9 1.9-14.2 5.7-17.3 9-7.3 7.8 2.2 24.6 18.1 32 3 1.4 5.9 2.5 6.4 2.5 1.2 0 1.8 12.3 1 19.7-.8 6.8-3.9 11.2-14.3 20.3-6.2 5.4-8.2 7.8-8 9.4.7 4.7 4.1 3 15.3-7.8 6.1-5.7 11-10.4 11.1-10.3.1.1.8 1.6 1.7 3.2 1.5 2.9 11.3 13.8 15 16.4 1.3 1.1 2 1.1 3.2.1 2.6-2.1 1.7-4-5-10.6-3.5-3.5-7.1-7.6-7.9-9.2-1.7-3.3-4.5-17.4-4.8-24.5-.2-5.4.4-6.2 6.3-7.1 10-1.6 21.2-9.4 25.3-17.8 3.4-6.9 3.5-12.6.1-16.7-3.1-3.6-10.9-7.4-18.3-9-7.2-1.5-21.5-1.3-27.9.4zm25.8 5.9c7.9 1.7 14.4 4.8 15.9 7.7 3 5.5-3.2 14.7-12.8 19.2-6 2.8-7.7 3.2-15.7 3.2-8.1 0-9.5-.3-13.9-2.9-4.2-2.5-4.6-3-3.1-3.8 1.2-.7 2.4-.6 4 .2 2.7 1.5 5.5.7 5.5-1.4 0-1.8-5.4-6.4-8.5-7.2-4.1-1-6-.1-6 3l.1 2.8-1.8-2.2c-2.2-2.7-3.4-8.8-2.1-10.9 1.6-2.6 8.8-6.1 15.5-7.6 8.2-1.8 14.8-1.8 22.9-.1z"/>
  <path d="M815.8 412.6c-2.5 1.8-3.8 3.5-3.8 5 0 2.8 2.2 3.7 4.7 1.9 1-.7 3.2-1.5 4.7-1.7 3.6-.4 5.5-3.1 4-5.6-1.7-2.7-5.5-2.5-9.6.4zm113.6-5.5c-3.1 1.1-3.9 2.9-2.1 4.7 1.3 1.3 2.1 1.3 4.2.4 2.6-1.2 3.4-4.6 1.3-5.5-.7-.2-2.3-.1-3.4.4zM366 409.5c-1 1.2-.9 2.8.4 8.2 5.2 20.7 18.5 47.2 32.9 65.6 3.1 4 6.9 4.8 7.5 1.5.2-1-3.8-7.9-8.8-15.4-5-7.5-11.5-18.7-14.5-24.8-5.7-11.8-11.5-27.8-11.5-31.8 0-4.3-3.6-6.2-6-3.3zm311 3c-1 1.2-.9 2 .4 4 1.7 2.6 2.4 2.9 5 1.9 2.1-.8 2-3.7-.2-5.7-2.3-2.1-3.6-2.1-5.2-.2zm451 10.6c-1.9.5-14.5 2.5-27.9 4.5-25.9 3.8-29.1 4.5-29.1 6.8 0 3.9 2.2 3.9 28.2-.3 13.9-2.3 26.9-4.4 28.8-4.7 6-.9 7-1.4 7-3.9 0-1.8-2.3-4.1-3.3-3.4-.1.1-1.8.5-3.7 1zm-650.4 3.4c-.9 2.4.4 4.3 3.2 4.9 1.5.3 6.3 1 10.7 1.6 4.4.6 15.9 2.5 25.7 4.1 22.2 3.7 23.8 3.7 23.8.4 0-2-.7-2.6-3.7-3.4-3.1-.8-56.4-9.1-58.4-9.1-.4 0-.9.7-1.3 1.5zm230.4 19c-1.9 2.3-.4 4.7 2.7 4.3 2.2-.2 2.9-.9 3.1-3.1.3-2.3 0-2.7-2.1-2.7-1.4 0-3 .7-3.7 1.5zm240.6 2.2c-3.2 1.7-3.1 4.6.2 5.1 2.8.4 5.2-1.4 5.2-3.8 0-2.5-2.1-3-5.4-1.3zm-56.3 2.9c-.4 1.1.1 2.2 1.3 3.1 2.7 2 4.9 1.2 4.9-1.7 0-2-.6-2.6-2.8-2.8-1.8-.2-2.9.2-3.4 1.4zm-254.9 3.8c-1.6 4.1 4.2 7.4 7.4 4.2 1.4-1.4 1.4-1.8.2-3-2.4-2.4-6.9-3.1-7.6-1.2zm430.9 2.2c-2.1.9-1.5 4.4 1 5.3 2.5 1 65.1 14.2 68.2 14.4 2.7.3 3.3-3.8.8-5.1-1.8-1-58-13.5-65.3-14.6-1.9-.3-4.1-.3-4.7 0zm-546.3 6c-49.8 10.9-51 11.2-49.6 14.9.8 2.1-2.3 2.6 38.6-5.9 17.9-3.8 33.1-7.4 33.9-8.1.7-.7 1.1-2.1.8-2.9-.9-2.4-6-1.9-23.7 2z"/>
</svg>
