<svg xmlns="http://www.w3.org/2000/svg" version="1.0" viewBox="0 0 1251 692">
  <path d="M774.2 5.8c-1.3 1-2.5 3.3-2.9 5.5-.5 3.1-1 3.7-3 3.7-4.4 0-6 1.6-6.7 6.7-1 7.3-2.1 8.4-4.9 4.9-2.9-3.6-5.4-3-11.3 2.4-2.3 2.1-5.5 4.5-7.2 5.4-3.6 1.9-26.5 6.2-37.7 7.1-17.2 1.4-38.6 3.7-51 5.5-7.1 1-21.3 2.8-31.5 4-19.5 2.3-45.3 7.2-73.5 14-9.3 2.3-21 4.7-26 5.5-8.6 1.3-9.7 1.2-26-1.6-9.3-1.6-21.5-4-27-5.4-14.7-3.5-61.2-18.9-63.5-21-2.7-2.5-6.4-1.3-8 2.6-1.9 4.4-.5 28.7 2.6 47.6l.5 3.3h-5.3c-8.8 0-29.6 2.8-40.3 5.4-32.8 8-69.3 25.2-108 50.9-19.7 13.1-45.6 35.4-60.2 52-12.7 14.3-33 45.2-44.4 67.2-8.4 16.4-12.4 27.1-18.8 51-5.7 21-9.9 34.2-11 34.9-1.5.9-11.3-2.3-15.4-5-15-9.9-31.5-33.8-36.3-52.6-2.7-10.6-2.5-29.4.5-40.6 6.2-23.8 14.8-33.9 41.1-48.3 19.2-10.5 31.6-24 43.5-47.1 11.1-21.4 14.5-41.1 11.1-64.3-2.5-17.5-6.6-28.1-15.7-40.2-11.1-14.6-21.2-22.9-36.6-29.8-29.1-13.1-58-10.6-75.2 6.3C13.3 48.6 12.8 60.9 25 69.1c9.4 6.3 19.4 7.7 41.1 5.5 8.5-.8 16.4-1.3 17.5-1.1 1 .2 3.1.6 4.6.9 6.7 1.5 15.3 13.1 19.5 26.4 3.3 10.6 2.9 21.5-1.1 33.7-5.3 15.7-10.7 21.8-42.1 46.5-9.3 7.3-19 15-21.5 16.9-14.8 11.7-25.2 27.4-31.8 48.2-9.8 30.4-10.6 58.6-2.6 84 5.4 17.2 23.9 49.7 37.1 65.4 10.4 12.3 25.6 20.6 50.3 27.6l9.4 2.6 1.8 14.2c2 16.2 6.6 35.9 11.1 47.6 4.9 13.1 16.3 36.2 21 42.8 6 8.3 20.7 22.4 28.4 27 7.2 4.4 18.4 9.2 26.4 11.2 14.2 3.7 32.2.5 41.1-7.4l3.5-3.1 1.9 2.1c6.9 7.7 31.8 20.8 53.2 27.9l14.4 4.8 5.9 10.8c18.5 33.2 39.9 54 71.2 69.3 18.3 8.9 30.3 12 47.3 12.2 24.7.2 51.9-8.7 64.2-21 7.3-7.3 13.7-19.8 17.2-33.8l1.1-4.3 4.7.6c2.6.3 11.7 1.6 20.2 2.9 19.2 2.9 48.8 6.5 86 10.5 15.7 1.7 30.5 3.3 33 3.5 21.2 2.3 99.1 5.5 135 5.5 58.9 0 111.3-3.7 218-15.6 19.9-2.2 29.7-4.1 46.2-9 8.1-2.4 15.1-4.4 15.5-4.4.5 0 2.1 2 3.6 4.5 12 18.9 43.8 32.3 71.2 30 21.3-1.8 35.6-7.1 52-19.5 11.2-8.5 17.3-14.8 21.9-22.4 4.7-7.8 10.9-23.7 14.3-36.7 2.4-9.2 2.7-12.3 2.8-26.4 0-18.4-1.1-24.5-8.2-44.7l-4.4-12.7 3.1-9.8c13-40.5 20.4-109.5 15.5-144.2-2.5-17.5-8.2-39-19.4-72.7-6.9-20.8-12.4-33.8-21.5-50.3-3.5-6.4-8.9-16.6-11.9-22.8-10.7-21.3-23.9-40.7-34.2-50.2-5.4-5-5.5-6.3-2-20.8 6.1-25.2 6.7-38 3-61.7-.8-5.5-1.5-13.4-1.5-17.6 0-4.9-.5-8.3-1.4-9.5-1.2-1.7-1.7-1.8-5.3-.6-2.1.7-5.8 2.7-8 4.4-2.3 1.8-8.4 6.4-13.5 10.3-12.9 9.9-26.2 17.6-38.1 22.3-17.5 6.8-20.9 7.5-34.2 7.4-14.9-.1-26.7-2-51-8.3-22-5.7-34-8.3-51.5-11-16.2-2.5-59-7.6-75-9-18.9-1.7-28.3-3.9-41.5-9.9C830 34.2 826 31.3 826 29c0-1.3-.9-2.2-2.7-2.6-1.6-.4-3.3-1.1-3.9-1.6-.6-.4-2.9-.9-4.9-1.1-3.8-.2-3.9-.1-4.9 4.1-.6 2.4-2 5-3 5.8-2.6 1.8-11.9 1.8-15.5 0-3.4-1.8-7.6-10.7-9.7-20.8-1.9-8.9-3.1-10.1-7.2-7zm4.6 20.9C783 38 788.6 42 800.5 42c4.9 0 12.2-3.1 13.2-5.5.8-2.3 1.7-1.8 3 1.5 1.3 3.5 3.7 3.9 5.4.9l1.1-2.1 2.6 2.4c3.9 3.5 7.3 5.4 10.7 6.1 1.7.3 6.2 1.6 10.2 3 9.9 3.6 19.6 5.4 34.8 6.7 22.2 1.8 75 8.8 90.9 12 8.3 1.7 23.7 5.3 34.1 8 24.2 6.3 35.3 8 51.4 8 15.2 0 23.5-2 41.2-9.9 13.5-6 24.6-12.9 39.2-24.3 6.2-4.8 11.4-8.8 11.7-8.8 1 0 5.1 37.4 5 46 0 9.1-1.1 15.5-6.1 37-1.7 7.4-3.1 14.3-3.1 15.4.1 2.2 3.5 6 7.9 8.7 6.6 4.1 19.9 23.3 31 44.9 3.9 7.4 10.9 20.9 15.6 30 4.7 9.1 10.7 21.9 13.2 28.4 5.9 15.3 18.5 55.9 17.7 56.7-.9.9-44.1 11.3-55.2 13.4-4.7.8-9.3 1.8-10.2 2.1-2.5.7-2.3 5 .1 5.7 3.1.8 19.7-2.6 43.5-8.7 12.1-3.2 22.4-5.8 23-5.9 1.4-.3 4.2 11.2 6.1 24.6 4.6 32.9-1.5 95.7-13.5 136.7-4.4 15.3-7.6 22.8-14.9 35-3.8 6.3-8.8 15.1-11.2 19.5-6.4 12.1-11.9 19.7-13.8 18.9-12.2-5-24.3-7.4-37.8-7.4-32.5.1-61.2 15.3-72.9 38.7l-3.9 7.8-.1 13v13l-12 3.7c-16.9 5.4-27.7 7.3-63.9 11.3-103.8 11.3-172.4 15.4-227.2 13.5-65.3-2.2-93.9-3.8-119.3-6.5-44.7-4.8-62.1-6.7-75.5-8.5-8.2-1-22.6-2.8-32-4-9.3-1.1-18.6-2.4-20.5-2.8l-3.5-.7-.6-8.5c-.7-10.2-2.1-15.5-6.1-23.3-6.1-12.3-15.9-19.2-33.3-23.6-26.4-6.7-46.7-4.4-69.9 7.7-11.7 6.1-18.5 12.7-21.4 20.8-2.7 7.5-2.7 8.1-.1 9.5 2.7 1.4 3.9.2 6.4-6.5 2.4-6.7 6.9-11.3 15.7-16.4 15.6-8.9 32.1-13 48.1-11.8 10.4.8 25.3 4.4 33 8 20.9 9.9 26.8 40 13.5 68.8-4.3 9.4-5.4 10-5 2.7.2-3.2-.1-8.2-.7-11C493.5 624 484 610 478.5 610c-1.4 0-2.5.2-2.5.4s-.2 1-.5 1.8c-.3.7 1.4 3.4 3.7 5.9 9 9.4 12.9 22.7 10.4 34.6-2.2 10.3-2.9 11.6-8.2 14.5-5.5 2.9-22 8.4-28.5 9.4-4.1.7-4.2.6-3.5-1.7 4.1-14-1.5-40.9-8.6-41.7-3.5-.4-4.2 2.1-1.9 6.6 5.2 10.2 6.9 27.4 3.4 34.7-2.1 4.5-5.5 5.2-17.9 3.6-30.3-3.7-66.8-25.5-87.9-52.6-17.7-22.6-36.8-62.9-43.5-91.6-6.5-28-7.6-67.4-2.4-92.3 4.4-21.4 18.7-61.2 25.3-70.5 3-4.1 3.7-7.9 1.7-8.7-3.8-1.5-10.1 8.7-18.9 30.1-14.9 36.5-20.2 67.7-17.7 103.9 2.1 30.5 6.6 50.1 17.6 76.3 2.4 5.8 4.4 10.7 4.4 10.9 0 .1-4.4-1.2-9.8-3-19.2-6.6-38.2-16.1-46-23.1l-4.5-4.1 3.8-9.4c3.1-7.7 3.9-11.1 4.3-18.1.4-7.7.2-9.1-2.2-14.1-3.2-6.8-10.8-14.1-18.1-17.4-6.5-3-10.9-2.9-11.3.2-.3 1.8 1.1 2.8 8.1 6.2 17.6 8.6 21.5 21.9 12.1 42.1-6.4 13.8-14.2 19.1-29.4 19.9-10.9.5-18.2-1.3-31.5-7.7-15.7-7.7-28.3-19.4-37.5-35-5.8-9.8-16.5-34.3-19.4-44.4-7.9-27.1-11.4-82.8-6.7-105.2 4.7-21.9 16.4-64.1 21.7-78 11-28.5 39.7-72.1 61.9-94 28.6-28.3 53.7-46.2 92.8-66.4 34.8-18 67-27.8 96.9-29.6l9.4-.5 2.7 27.2c1.5 15 3 28.4 3.3 29.8.5 2.3.2 2.5-2.8 2.5-4.1 0-4.6 2-2.8 11.7 1.2 7 2.9 9.5 5.6 8.4 1.4-.5 1.6-1.6 1.1-5.6-.6-4.7-.5-5 1.3-4 4.2 2.3 7.7.5 5.9-3-1.2-2.4-2.7-14.8-5.4-44.4-1.4-14.9-3.4-34.8-4.5-44.1-2.1-18.1-2.6-29.5-1.1-27.9 2.1 2.3 6.8 16.6 14.7 45.2 11.5 41.6 12.1 43.5 14.5 46.5 2.2 3 5.4 3.5 6.3 1.2.3-.8-.3-3.4-1.4-5.7-1-2.4-5.8-18.5-10.5-35.8-4.7-17.3-10.1-35.9-11.9-41.3-1.8-5.3-3-9.7-2.6-9.7.3 0 9.2 3 19.6 6.6 22.7 7.9 39.6 12.3 60.4 15.8 8.5 1.5 16.8 3.1 18.3 3.6 2.1.7 3.5.6 5-.4 1.2-.8 4.9-1.7 8.2-2 3.3-.4 13.7-2.5 23-4.7 32.4-7.6 49.5-10.9 69.7-13.4 11.2-1.4 28.2-3.6 37.8-5 9.6-1.3 25.6-3.1 35.5-4 26.2-2.2 35.1-3.5 43.8-6.1 9.4-2.9 10.9-3.6 16.4-8.1l4.3-3.4 3 2.3c1.7 1.2 2.8 2.8 2.6 3.5-1.4 3.4 2.9 5.9 5.1 3 .6-.6 1.8-4.2 2.9-7.9 1.7-6.2 2-6.7 4.2-6.1 2.5.6 6.2-2 6.2-4.4 0-2.4.7-1.3 2.8 4.4zM85.5 31c24.9 6.4 45.7 24.5 55.1 48 5.3 13.1 6.7 20.5 6.8 36.5 0 12.9-.3 16.2-2.3 23.4-4.5 15.9-19.5 41.3-31.4 53.3-4.3 4.4-9.3 8-16.2 11.7-23.3 12.6-32.9 21.4-40.1 36.6-5.1 10.9-7.1 18.1-8.4 31.3-1.8 17.2.9 32.2 8.7 47.6 10.5 21 29.3 39.9 44.3 44.3l5.6 1.7-1.4 7c-.8 3.9-1.5 15.6-1.7 26.1-.2 10.4-.4 19.1-.4 19.1-.2.5-18.6-4.8-23-6.6-23.2-9.1-31.9-17.9-52-52.9-9.8-16.9-14-28.7-16.6-46.6-3.6-24.8 1-56.1 11.5-78.2 6.2-13 13.6-21.9 27.6-33 42.2-33.4 52.1-42.8 57.7-54.4 4.6-9.5 6.6-17.3 7.4-27.9.7-10.4-1-18.1-6.7-29.6-4.8-9.8-10.5-16.5-16.6-19.5-4.5-2.1-5.2-2.2-19.8-1.3-24.5 1.4-33.2 1.1-39.8-1.5C27.2 63.5 23 59.2 23 54.9 23 45.3 38 32 52 29c6.8-1.4 24.4-.4 33.5 2zm1139.4 477.6c2.4 3 4.4 9.6 6.7 22.3 2 11.3 1.5 32.1-1.1 41.6-2.8 10.3-7.5 24.6-9.2 27.9-10.2 19.8-40.3 44.5-50 41-5.9-2.1-11.9-20.7-11.1-34 .4-5.9 1.2-8.9 4.2-14.8 3.8-7.8 3.9-10.9.3-10.4-4.4.6-10.4 13.1-11.4 23.4-.9 10 3.2 27.4 8.3 34.9 1.3 2 2.4 4 2.4 4.4 0 1.6-17.9 3.4-26.8 2.7-9.8-.7-20.6-3-23.8-5.1-1.1-.7-4-5.2-6.5-10-4.4-8.7-4.4-8.8-4.4-19.4 0-10.2.2-10.9 3.9-18.9 3.5-7.5 3.8-8.5 2.4-9.9-2.6-2.6-5.1-.6-8.5 6.5-6.1 13.3-6.8 27.2-1.9 39.3 1.4 3.5 2.3 6.5 2.1 6.7-1.1 1.2-14.3-10.7-17.6-15.8-5.8-9.1-7.8-23.6-4.4-33.5 5.7-16.4 22.5-30.3 44.5-36.6 5.3-1.5 11.5-2.3 21.2-2.6 11.9-.5 15.1-.3 23.3 1.7 5.5 1.2 13.1 3.9 17.7 6.2 9.4 4.7 20.3 14.4 23.7 21.2 2.7 5.6 5.1 7.1 7.7 5.1 1.8-1.3 1.8-1.6-1-7-3.6-6.9-10-14.2-16.9-19.1-2.9-2.1-5.4-3.9-5.6-4-.2-.2 1.3-2.7 3.4-5.6 2.1-2.8 6.4-10.1 9.7-16.1 7.1-13.2 14.4-24.7 15.7-24.7.5 0 1.9 1.2 3 2.6z"/>
  <path d="M437.2 228.2c-.7.7-1.2 1.6-1.2 2.1 0 1.5 15.6 19 30.8 34.5 14.3 14.7 17.3 16.6 18 11.3.3-1.9-2.6-5.3-14.5-17.5-8.2-8.3-18.3-18.8-22.5-23.4-4.3-4.5-8.1-8.2-8.6-8.2-.4 0-1.3.5-2 1.2zm731.7.6c-1.4.9-7.2 5.6-13 10.3-5.7 4.7-15.9 12.7-22.5 17.7-13.8 10.4-14.7 11.3-13.8 13.6 1.2 3.1 5 1.6 14.9-5.9 16.5-12.5 38.4-30.9 39.1-32.9.3-1 0-2.4-.8-3.2-1.1-1.1-1.7-1.1-3.9.4zm-601.8 1.4c-9.4 4.9-10.5 11.9-3 19 8.6 8.2 24.5 5.4 28.9-5.2 1.6-3.9.6-9.2-2.5-12.7-2.1-2.6-3-2.8-10.7-3.1-7.1-.2-9 .1-12.7 2zm445.1 8c-4.1 1.1-6.2 4.3-6.2 9.6 0 3.7.6 5 3.4 7.8 3 3 4 3.4 8.3 3.3 8.2-.1 11.4-1.7 13.6-7.1 2.3-5.7 1.7-9.1-2-11.5-3.1-2.1-12.7-3.2-17.1-2.1zm-199.7 1.3c-7.8 1.7-11 3-16.6 6.6-4.9 3.1-6.9 6.3-6.9 10.7 0 4.3 4.7 13.3 9.6 18.3l4.5 4.6-7.7.6c-4.2.4-12.1.7-17.5.7-5.3 0-18.2.7-28.6 1.5-108.7 8.6-193.8 36.7-233.8 77-16.3 16.4-23.5 31.6-23.5 49.5 0 16.9 12.4 38.2 31.5 54.3 79.2 66.8 283.8 93.1 444.7 57.2 85.6-19.2 143.2-53 158-93 1.8-4.9 2.2-8.2 2.2-18 0-11.1-.2-12.6-3-19.6-10.4-25.8-39-49.8-81.4-68.2-45.9-20-113.8-35-177.5-39.2-4.9-.3-11.5-.8-14.5-1.1l-5.4-.6 2.9-2.1c7.1-5.1 11.9-12.3 13.1-19.5 1.1-6.8-3-12.2-12.6-16.6-9.8-4.5-25.5-5.8-37.5-3.1zm25.6 6.5c7.3 1.4 15.8 5.7 17.1 8.6 2.9 6.3-5.4 17.4-15.8 21.4-11.5 4.4-28.5 2.8-34.2-3.3l-2.1-2.2 2.7.1c1.5 0 3.7.6 4.9 1.2 2.7 1.5 5.3.6 5.3-1.8s-2.2-4.6-7.1-7.1c-5.1-2.6-8.3-1.2-7.7 3.1.6 3.9-1 2.7-3.3-2.4-2.9-6.5-2.5-9.2 1.9-11.9 4.8-3 8.6-4.5 14.2-5.6 6.3-1.2 17.8-1.3 24.1-.1zm31.9 43.6c21.8 1.7 23 2.1 23 7.1 0 2-.2 2.2-2.7 1.2-1.6-.6-5-1.5-7.8-2-7.3-1.4-66.1-2-79-.8-12.9 1.2-34.8 1.4-42.8.4-5.4-.7-5.7-.9-5.7-3.6 0-1.6.3-3 .8-3 13.1-2.2 85-1.7 114.2.7zm-122.1 12.1c.1 6.5 1.1 22.8 2.1 36.3 2.8 34.7 2.5 48-1.3 51.7-1.3 1.3-1.9 1.2-5.8-.7-2.4-1.2-5.9-3.4-7.7-4.7-5.4-4.1-18.1-22-23.3-32.8-8.2-17.2-18.3-50.4-16.6-54.7.3-1 3.4-1.9 9.4-2.7 14.4-2.1 31.4-3.9 37.4-4l5.6-.1.2 11.7zm173.1-6.2c18.7 2.9 29.9 5.1 30.7 5.9.3.3.2 1.3-.3 2.3-.4 1-.9 3.5-1 5.5-.3 5.2-10.8 35.8-15.5 45.2-4.7 9.5-16.3 26-21.4 30.4-1.9 1.8-5.8 4.3-8.5 5.7-4.3 2.2-5.1 2.3-6.4 1-3.4-3.5-4.4-16.7-2.6-36.9 1.2-14.9 2.8-36.6 3.6-50.4l.6-11.2h2.7c1.4 0 9.6 1.1 18.1 2.5zm-232.9 3c0 .5-2.6 1.4-5.8 1.8-11.4 1.6-45.9 10-54.6 13.3-4.8 1.9-13.6 4.8-19.5 6.5-6.5 1.9-14.1 5-19.2 7.9-4.7 2.6-15.2 8.4-23.5 12.8-28.6 15.2-30.7 16.7-45.2 32.1-15 15.8-15.3 16.6-15.8 32.2-.3 8.1 0 10.4 2 15.3 4.2 10.4 8.9 17 19.5 27.5 17.2 17 26.1 23 49.6 33.2 34.5 14.9 45.9 18.8 68.5 23.3 9.5 1.9 21.2 4.4 25.9 5.5 9.4 2.2 32.5 6.6 40.8 7.7 2.8.4 5.2.9 5.2 1.3 0 .3.3 1.6.6 2.9.6 2.2.4 2.3-2.7 1.8-1.9-.3-11.9-1.9-22.4-3.6-88.8-14.5-157.8-45.7-182.5-82.6-35.9-53.8 28.3-110 156-136.5 18.4-3.8 23-4.3 23.1-2.4zm86 3.8c6.3.1 26.7-.1 45.4-.5 30.7-.7 53.1-.1 68.7 1.8l4.7.6-.4 5.6c-.5 5.4-2.7 36.5-4.1 55.7-.3 4.9-.1 12.4.4 16.6 2.3 18.4 9.5 21.6 24.9 11.2 7.6-5.2 20.6-22.3 27.2-35.8 4.5-9.2 15.1-39.3 15.1-42.9 0-3.6 1.8-3.2 32.6 7 19.2 6.3 26.6 9.3 47.9 19.1 8.3 3.9 18.1 8 22 9.3 5.4 1.8 8.3 3.5 12.5 7.5 3 2.9 8.7 7.3 12.7 9.9 7.9 5.1 9.9 7.4 13.6 15.8 1.4 3.1 4.3 7.6 6.5 10 5.2 5.7 6.1 7.6 6.8 14.5.9 8.9-.6 12.6-10.3 24.8-10.8 13.5-26.2 25.9-40.9 32.9-5.2 2.5-11.4 5.9-13.7 7.5-9.6 6.5-32.6 15.6-55.9 22.1-6.2 1.7-15.2 4.7-20.1 6.6-4.9 1.8-9.3 3.4-9.8 3.4s-.9-1.9-.9-4.3c0-4.9-1.3-6.7-4.8-6.7s-6 1.6-13.4 8.6c-3.6 3.5-7.4 6.4-8.5 6.4-2.9 0-42.7 2.8-56.8 4-19.3 1.6-66.3 1.6-106 .1l-35-1.4-3.7-3.3c-5.4-4.8-8.5-6.7-11.5-6.7-3.2.1-5.3 2.6-5.3 6.5 0 1.6-.5 2.8-1.2 2.8-2.4 0-33.6-5.9-41.9-7.8-4.6-1.1-16.3-3.6-26-5.6-22.3-4.5-41.3-11.3-78.9-28.4-20.6-9.3-47.8-35.5-54-52-1.8-4.7-2.1-6.9-1.6-12.7 1.2-13.2 1.6-13.8 15.4-27.8 14.2-14.3 16.5-15.9 50.7-34.2 11-5.9 20.5-11.1 21-11.5.6-.5 6.4-2.4 13-4.4 6.6-2 15.4-4.9 19.7-6.5 9.4-3.7 43.4-11.9 52.7-12.7l6.8-.7 1.8 7.4c2.8 11.5 10.3 32.5 14.9 41.9 5 10 15.2 24.7 21.7 31 5.4 5.3 14.9 10.4 19.5 10.4 10.1 0 12.9-13.8 10-50.4-.9-11.3-1.9-26.3-2.3-33.3l-.6-12.8 4 .7c2.1.3 9.1.7 15.4.7zm203.9 4.6c107.2 27.2 162.2 76.9 138.6 125.2-16.1 32.9-68.7 62.4-142.1 79.9-18.8 4.4-18.5 4.4-18.5 2.6 0-.9 1-2 2.3-2.5 6.5-2.5 19.7-6.7 31.7-10.1 15.7-4.5 37.2-11.8 45.3-15.4 3.1-1.3 8.9-4.6 12.8-7.1 4-2.6 10.9-6.4 15.5-8.5 5.1-2.4 13.1-7.5 20.8-13.4 10.4-8.1 13.9-11.5 21.5-21.2 10.5-13.4 12.8-18.9 11.7-28.3-1.1-9.2-2.7-13.1-7.8-18.6-2.7-2.9-5.5-7.1-6.2-9.3-2.7-7.5-6.8-12.4-15.1-17.8-4.4-2.9-10.2-7.4-13-9.9-5.7-5.4-7.8-6.6-17.2-10-3.8-1.3-15.1-6.3-25.3-10.9-13.1-6-26.8-11.3-46.7-17.8-15.6-5.1-28.3-9.6-28.3-10.1 0-1.4 4.6-.7 20 3.2zm-25.4 197.6c-1.2 6.2-4.4 12.5-6.8 13.4-1.3.4-4.3 1.1-6.6 1.5l-4.4.7 2.3-3.3c3-4.2 14.2-15.8 15.3-15.8.5 0 .5 1.6.2 3.5zm-223.2 12.6c3.6 3.9 6.6 7.6 6.6 8.1 0 1.3-9 .1-10.7-1.4-1.3-1-4.3-9.9-4.3-12.5 0-2.5 1.9-1.2 8.4 5.8zm197.6-.2c0 .5-.8 1.8-1.7 3-1.4 1.6-4.1 2.3-12.8 3.5-45.6 6.2-106.7 8.1-153 4.6l-12-.9-3.2-3.7c-1.8-2-3.1-3.9-2.9-4.3.6-.9 46.3.6 61 2 10.3 1 19.5 1 44.5.1 17.4-.7 35.9-1.7 41.1-2.2 5.2-.6 15.6-1.4 23-1.9 7.4-.4 14.1-.9 14.8-1 .6 0 1.2.3 1.2.8z"/>
  <path d="M838.9 263.5c-3.9 2.6-5.2 4.6-4.3 7 .8 1.9 3.8 1.9 5.4 0 .7-.9 2.1-1.3 3.4-.9 1.4.3 3.1-.2 4.6-1.4 2.2-1.7 2.3-2.3 1.2-4.6-1.5-3.4-5.5-3.5-10.3-.1zm-439.8 4.9c-.6.7-.9 2.1-.5 2.9.6 1.8 6.7 6.7 8.2 6.7.5 0 6.1 3 12.3 6.6 14 8.2 25 13.4 28.2 13.4 2.5 0 4.2-2.3 3.1-4.1-.3-.5-6.4-3.9-13.5-7.4-7.1-3.6-17.8-9.4-23.8-13-6.1-3.6-11.4-6.5-11.9-6.5s-1.5.6-2.1 1.4zm789.7 9.1c-7 3-17.8 7.1-24 9.1-6.2 2.1-11.9 4.2-12.5 4.7-1.9 1.4-1.6 3.5.6 4.7 2.4 1.2 9.8-.9 29.6-8.7 18.7-7.2 22.5-9 23.1-10.8.7-1.7-1.2-4.5-3-4.4-.6 0-6.8 2.5-13.8 5.4zm-826.5 22.1c-.3.8-.1 2 .4 2.5 1.5 1.5 44.3 19.1 55.2 22.8 10.1 3.3 14.7 3.9 15.4 1.8 1-2.7-1.6-4.7-8.6-6.8-3.9-1.1-18.5-6.5-32.3-12-13.7-5.4-26-9.9-27.2-9.9-1.3 0-2.5.7-2.9 1.6zm3.4 108.1c-3.2 3.2 6.7 31.4 18.1 51.3 6.4 11.1 16.8 25.9 18.8 26.7 1.6.6 4.4-1.4 4.4-3.1 0-.6-3.5-6.1-7.8-12.1-12.2-17.5-25.1-44.2-26.8-55.8-.4-2.3-1.1-5-1.6-6-.9-1.7-3.9-2.3-5.1-1zm540.8 139.8c-6.4 1.3-20.1 2.8-44 4.6-12.6 1-77 .7-92-.4-2.7-.2-3 .1-3 2.8 0 2.7.4 3 4.5 3.8 2.5.5 23.9 1 47.5 1.1 35.1.1 46-.2 59.5-1.7 36.2-3.9 41-5.1 38.2-9.3-1.3-2-4.5-2.3-10.7-.9z"/>
</svg>
